<svg width="1600" height="1100"><g transform="translate(0,0)"><circle r="0.7019692316901014" cx="433.6159416367335" cy="483.93386260790555"></circle><circle r="11.652567920478349" cx="1132.921694260064" cy="365.32557710464016"></circle><circle r="7.822678170801309" cx="891.8234385996744" cy="614.8619183904007"></circle><circle r="0.2627156289311166" cx="471.063857350921" cy="451.82629276828095"></circle><circle r="4.17138745425158" cx="904.4920954282715" cy="313.41030973971374"></circle><circle r="0.36030590752396535" cx="905.0107860940476" cy="152.95463328346653"></circle><circle r="0.6333042363992325" cx="808.1721005684736" cy="303.4194251463213"></circle><circle r="4.789771717959837" cx="1084.3183005446406" cy="421.031388589476"></circle><circle r="13.986087325202462" cx="458.7277923084131" cy="748.3340888959871"></circle><circle r="3.7663574856778603" cx="1035.2649790261112" cy="319.15350430785395"></circle><circle r="0.5601535049031249" cx="-92.20669315054624" cy="625.4208614699775"></circle><circle r="0.13482441024953806" cx="904.2401345231074" cy="1296.5971706674645"></circle><circle r="0.025871790799006453" cx="1161.24196911771" cy="845.6626742821454"></circle><circle r="0.6398534511283671" cx="476.502694215798" cy="458.0311017330463"></circle><circle r="10.082566063565482" cx="1504.1938512613744" cy="689.5061310968423"></circle><circle r="6.265294410952373" cx="873.8306157326372" cy="265.42594551974486"></circle><circle r="6.276117698501031" cx="1048.9299124488466" cy="319.1467442210236"></circle><circle r="6.555354816826201" cx="957.7811008006498" cy="572.8242441458577"></circle><circle r="7.056319968862013" cx="822.5965228289796" cy="244.16460235633016"></circle><circle r="6.483390247007771" cx="807.0403372542795" cy="494.99866144255475"></circle><circle r="8.676624363127765" cx="790.8071168322102" cy="485.26036673015517"></circle><circle r="27.31464674343846" cx="1274.8989408998993" cy="423.03607132010643"></circle><circle r="5.869080036967414" cx="932.0385873382285" cy="301.8019102974779"></circle><circle r="1.865365856310007" cx="1064.2276113831185" cy="408.07236734024764"></circle><circle r="1.2157696924400887" cx="399.1785807101843" cy="419.21344007867236"></circle><circle r="4.696493089122958" cx="894.2701094873813" cy="292.78701904587126"></circle><circle r="0.18870452179704097" cx="472.61060980124773" cy="454.91182594988334"></circle><circle r="6.791928670946039" cx="946.7834107400481" cy="216.89361481387908"></circle><circle r="1.2132955708434687" cx="335.74842035427895" cy="458.4084253358041"></circle><circle r="0.5695027031410367" cx="460.89915208599666" cy="371.0720430138058"></circle><circle r="6.836381979975592" cx="461.3114223526854" cy="638.7436390911372"></circle><circle r="30.82508742780526" cx="522.0084124157308" cy="606.7845141881689"></circle><circle r="1.1664645046594049" cx="488.13819313951177" cy="480.36721398617215"></circle><circle r="1.3623372913738288" cx="1400.6198999207502" cy="526.0869748363131"></circle><circle r="1.8177987544963754" cx="1272.5504912792182" cy="390.9906332843855"></circle><circle r="3.085208921980403" cx="924.6112031377423" cy="669.1810750149076"></circle><circle r="4.6443225739294425" cx="907.1534903845436" cy="515.5433103102623"></circle><circle r="12.653245747317868" cx="272.66554964486977" cy="147.8456860690685"></circle><circle r="6.029716075998776" cx="842.0675969500926" cy="272.4065750056259"></circle><circle r="8.909202810876787" cx="426.3370102162303" cy="763.6957392950981"></circle><circle r="80" cx="1354.0885640483414" cy="346.2340203263475"></circle><circle r="9.928323616486306" cx="768.0459553772927" cy="510.21821193807176"></circle><circle r="9.500696140420445" cx="870.413333957778" cy="524.0090501559757"></circle><circle r="0.21865654071226392" cx="974.7505349785215" cy="354.68404920525643"></circle><circle r="18.12246488762042" cx="923.8055258199312" cy="565.0849495903863"></circle><circle r="4.380127146795546" cx="879.6829917522725" cy="554.3925895617494"></circle><circle r="0.23822527254502912" cx="-31.428277970683553" cy="655.8832247237121"></circle><circle r="14.772514698581006" cx="417.33389790789323" cy="529.5144593343624"></circle><circle r="1.8966964581041348" cx="1028.7087996238529" cy="612.6766540991243"></circle><circle r="1.4329495868047262" cx="674.5078260389446" cy="465.46142885728227"></circle><circle r="4.509775647427267" cx="359.1633542436955" cy="497.5141522420555"></circle><circle r="0.004373130814245278" cx="1608.3860573558377" cy="662.6678854561367"></circle><circle r="7.3994006599527165" cx="386.17259902265266" cy="433.9819463761698"></circle><circle r="0.8232818021366519" cx="438.8670883275871" cy="485.6657999794143"></circle><circle r="0.48418971807694466" cx="376.52888269597565" cy="446.2771867495844"></circle><circle r="1.1258157935153918" cx="976.3332069878406" cy="350.63789105117917"></circle><circle r="1.5943045945427254" cx="970.0425611354735" cy="353.6852433211046"></circle><circle r="6.987403687277532" cx="882.0779693210972" cy="249.79942182198482"></circle><circle r="19.839964577665828" cx="854.7620570587787" cy="237.82102590191724"></circle><circle r="1.5707622961613517" cx="1023.5592058564633" cy="487.3100198469681"></circle><circle r="0.5894000519151497" cx="478.7359307429072" cy="468.17907500798714"></circle><circle r="5.128188167643838" cx="852.628953858486" cy="194.80883438281143"></circle><circle r="6.792463991518257" cx="433.3168994091589" cy="449.2655095592391"></circle><circle r="12.783123659805266" cx="813.8915539644288" cy="396.2987685629313"></circle><circle r="8.347154660534157" cx="387.5492943035327" cy="557.4685535075539"></circle><circle r="19.930500986080904" cx="956.3519404029485" cy="406.05938308311187"></circle><circle r="5.1961039052847635" cx="1003.4335411895149" cy="468.60771891671857"></circle><circle r="0.19373018865179306" cx="978.1604263749297" cy="354.55193586486007"></circle><circle r="13.91951154293697" cx="780.8748373207874" cy="319.57134581611825"></circle><circle r="2.49246493888382" cx="933.7051003758633" cy="168.55863412414323"></circle><circle r="20.187261650642668" cx="1006.6662248749859" cy="505.40938291062207"></circle><circle r="5.01018195895221" cx="937.5535613557797" cy="104.25769629050092"></circle><circle r="2.125269588811664" cx="1655.6015651937635" cy="642.8007687684772"></circle><circle r="0.12252572953475419" cx="489.1074527092733" cy="867.5871054439308"></circle><circle r="17.500419349091075" cx="814.2224872652743" cy="271.5395721698884"></circle><circle r="0.48330515398594515" cx="764.0258593150063" cy="132.4775829134843"></circle><circle r="0.7166933022941364" cx="1612.942776168615" cy="513.429161071289"></circle><circle r="2.6913351660754765" cx="861.7300402769183" cy="553.0979581947561"></circle><circle r="17.25337280725239" cx="790.9645024694324" cy="211.94057685637856"></circle><circle r="4.697710977973511" cx="1027.8048751590818" cy="306.0589268227172"></circle><circle r="0.572834233644891" cx="786.3105985818466" cy="250.53178791144006"></circle><circle r="10.67449230028439" cx="791.5297438150576" cy="507.8752272689778"></circle><circle r="0.3661044497831435" cx="772.0047425696729" cy="346.87877383213265"></circle><circle r="6.934541457786896" cx="743.6417346719392" cy="492.9648316483245"></circle><circle r="2.9196118180789297" cx="716.2048477262966" cy="480.6991837484791"></circle><circle r="2.708133420363052" cx="722.0354393545142" cy="487.05860110893093"></circle><circle r="1.7638170799969033" cx="854.1028617551526" cy="541.061050474384"></circle><circle r="7.164940782418339" cx="920.2958709605522" cy="327.56801918501526"></circle><circle r="0.6586572360681453" cx="477.1663663893087" cy="485.8824598877916"></circle><circle r="0.5247756977094333" cx="583.5142149133713" cy="-52.98122208579184"></circle><circle r="7.967178565377287" cx="325.73835305546373" cy="465.3482974453379"></circle><circle r="0.9236265550175347" cx="1558.0241006432818" cy="478.95352621238436"></circle><circle r="1.921564328930502" cx="491.1808416382584" cy="524.8721617208658"></circle><circle r="5.810342445681735" cx="1401.0499333922016" cy="428.7619268262975"></circle><circle r="6.103946843408112" cx="346.9485652013889" cy="470.5912468463298"></circle><circle r="4.632944092492888" cx="885.1872465509279" cy="284.4494616998918"></circle><circle r="6.5726337612112005" cx="416.9552046251037" cy="448.93179074075465"></circle><circle r="6.881811594804392" cx="901.5088812338989" cy="270.7218220078203"></circle><circle r="33.893281817072754" cx="1414.1171086759898" cy="561.8824738437028"></circle><circle r="0.6048215407958765" cx="770.1795616443777" cy="210.19400697231217"></circle><circle r="74.66662143105924" cx="1175.5806919184986" cy="461.4625989504872"></circle><circle r="0.09945868624984415" cx="1347.785884042012" cy="606.3118882772277"></circle><circle r="0.13829053878881797" cx="1178.5557091737903" cy="587.504945690613"></circle><circle r="4.482832385102241" cx="757.3526461103113" cy="219.99616025011227"></circle><circle r="17.8214180852879" cx="1084.193428277943" cy="369.45560287704643"></circle><circle r="12.199629101608858" cx="1029.048162139125" cy="366.53317525412973"></circle><circle r="1.2109190538394505" cx="702.6292368172394" cy="98.08459412052366"></circle><circle r="5.880885851246774" cx="980.6804823480637" cy="382.6870726770463"></circle><circle r="16.670494545992955" cx="854.1689806256024" cy="303.5284332674449"></circle><circle r="3.6757250606248046" cx="395.1596550928546" cy="453.30755466565495"></circle><circle r="0.6618686895366453" cx="789.3006373029722" cy="253.53051719128047"></circle><circle r="5.506910883799857" cx="994.3366002756761" cy="378.1551011927323"></circle><circle r="24.648972416382744" cx="1522.452938676201" cy="337.5767726744469"></circle><circle r="0.5785108292623203" cx="1131.8773086347185" cy="278.2806583110039"></circle><circle r="0.16937062814358442" cx="1206.7017067374811" cy="351.5033434442758"></circle><circle r="8.580545423502496" cx="1152.360847029759" cy="261.5008672896926"></circle><circle r="13.65558186335029" cx="998.8696072482652" cy="547.2806425774647"></circle><circle r="5.096033092970491" cx="1190.2993932394272" cy="311.02499897596215"></circle><circle r="8.324554312267797" cx="1350.4206800786594" cy="488.72803132876203"></circle><circle r="0.7345362859353686" cx="530.2166002160664" cy="546.7787538598566"></circle><circle r="0.43802859624646273" cx="471.9344640135061" cy="458.4753550276352"></circle><circle r="15.229074407410199" cx="1469.4706040222866" cy="346.89205443974566"></circle><circle r="2.9375250997502187" cx="909.0044273041182" cy="302.99107890232824"></circle><circle r="3.5870057358833582" cx="1049.2048665197028" cy="389.1851387214343"></circle><circle r="5.716495813807558" cx="1339.1659733500453" cy="449.3780544984915"></circle><circle r="4.382465685061524" cx="986.8204432091925" cy="358.3273458090546"></circle><circle r="4.056529673764494" cx="751.2006816916431" cy="516.1449938272856"></circle><circle r="5.49277851620376" cx="894.2980719041682" cy="402.9074355912294"></circle><circle r="0.8753556248581046" cx="480.8681279235286" cy="476.1536365807427"></circle><circle r="0.40766985965123576" cx="850.9039913308379" cy="269.09260644114977"></circle><circle r="10.09729081584467" cx="1236.819523599034" cy="525.5889823720031"></circle><circle r="3.191800609455907" cx="950.1017529189619" cy="712.7414429129611"></circle><circle r="4.1228089387322235" cx="925.0785785590662" cy="200.73209457902135"></circle><circle r="1.5333655315066848" cx="832.9956219310114" cy="249.28119769537884"></circle><circle r="3.266338655006382" cx="930.4212414744054" cy="186.41928805759255"></circle><circle r="1.6360507180632138" cx="1391.0892811928827" cy="431.91034514280767"></circle><circle r="0.41866304374681385" cx="469.12335440606086" cy="455.8351367643487"></circle><circle r="12.909879916882083" cx="756.0363689319411" cy="386.16452418963775"></circle><circle r="0.3969986345541393" cx="836.6987939536494" cy="293.65438342969253"></circle><circle r="4.5450842904235405" cx="948.4758566262298" cy="269.51533425802506"></circle><circle r="9.937105285397084" cx="1044.5520352994008" cy="653.4276934110884"></circle><circle r="1.3765536369996811" cx="1185.0517915497787" cy="540.7658176905222"></circle><circle r="23.058862866765395" cx="263.1525634514355" cy="420.7828498126528"></circle><circle r="0.5554134383844072" cx="1690.6390449226433" cy="512.6526501885776"></circle><circle r="3.1434248635414894" cx="914.339321986624" cy="310.3396206581675"></circle><circle r="7.7821417196121025" cx="781.4694236831601" cy="457.76657748700677"></circle><circle r="1.3918051334559813" cx="875.4178797486011" cy="348.22821736880735"></circle><circle r="15.170689718925857" cx="1318.008078777038" cy="437.5453119819861"></circle><circle r="1.7926902900943587" cx="900.7326017238597" cy="301.6787678184119"></circle><circle r="3.8131230704025967" cx="1337.4510164880712" cy="261.0300864475845"></circle><circle r="0.6510753226840551" cx="1562.359581681519" cy="463.7463458257238"></circle><circle r="10.178521390073529" cx="986.0770854390013" cy="641.8267469399028"></circle><circle r="3.868111457304682" cx="745.8420954906201" cy="441.6576277220403"></circle><circle r="0.156106069777093" cx="474.34679055039777" cy="461.15542375067935"></circle><circle r="2.477933387535836" cx="1102.90032175018" cy="657.9480174738578"></circle><circle r="8.259520661227377" cx="979.5415374123879" cy="619.8273215400347"></circle><circle r="11.088240911230598" cx="1374.381933026424" cy="530.1285627589791"></circle><circle r="3.1751647742843647" cx="890.1172826881788" cy="668.8615073154112"></circle><circle r="1.0427785216645387" cx="1667.6170713970225" cy="664.2122746787011"></circle><circle r="8.554544752185983" cx="849.1451987721183" cy="457.3583394589202"></circle><circle r="0.10117443939393964" cx="1679.4112101790195" cy="708.9852178831275"></circle><circle r="26.710942862361918" cx="843.2266449721077" cy="495.75243013020196"></circle><circle r="5.307186134653733" cx="355.0123024382304" cy="482.5351530535368"></circle><circle r="0.08175532676784002" cx="-89.43381599327302" cy="651.629814683994"></circle><circle r="8.939817256585828" cx="825.5129087018156" cy="225.39356220955446"></circle><circle r="4.728396504244713" cx="880.6844725048982" cy="47.321304535648835"></circle><circle r="11.686036784713691" cx="1239.7713561148053" cy="395.32026932254996"></circle><circle r="0.25889340704635255" cx="1674.0598348497078" cy="552.7268503558522"></circle><circle r="4.488277971405365" cx="1697.8184121918516" cy="791.5506348367929"></circle><circle r="4.042536056804361" cx="1093.6985682511645" cy="439.72573969646595"></circle><circle r="29.028082488713164" cx="1173.9302766088472" cy="350.2824592791001"></circle><circle r="4.008323296081026" cx="380.4858807545889" cy="505.2528799495303"></circle><circle r="0.01514896951683575" cx="127.28413077250616" cy="681.8780329109252"></circle><circle r="11.885539430693296" cx="410.5573645941027" cy="598.1375114661901"></circle><circle r="0.02186565407122639" cx="1401.7565739247448" cy="494.47203148803766"></circle><circle r="21.64330909885894" cx="1443.3694143481214" cy="487.97181979223586"></circle><circle r="0.3153206240370104" cx="1503.4446576002567" cy="512.2137509193469"></circle><circle r="5.381467085344715" cx="1560.4304804367275" cy="583.9497032216465"></circle><circle r="13.564271574186847" cx="901.5484308531447" cy="229.08879641223155"></circle><circle r="4.357260350238212" cx="451.97666283549046" cy="452.9295788156995"></circle><circle r="10.409830067117618" cx="1465.7225872501642" cy="318.49946350871187"></circle><circle r="7.155090200482412" cx="755.0184795703576" cy="323.9405229711127"></circle><circle r="5.783312564240564" cx="494.2265743411385" cy="675.0940438824342"></circle><circle r="4.437749099762648" cx="984.3735632354143" cy="369.89059182892754"></circle><circle r="1.1714604519305956" cx="40.50929270306733" cy="630.4764444730657"></circle><circle r="1.9959941085553448" cx="1068.44749066015" cy="413.48262421536344"></circle><circle r="10.305990717132623" cx="930.7579827151415" cy="279.2204269621616"></circle><circle r="25.875601710315543" cx="1306.2873469643012" cy="133.47641906890624"></circle><circle r="7.076261467312496" cx="953.6149783916678" cy="556.7231745823167"></circle><circle r="11.711223295862608" cx="1033.1944728529136" cy="419.79013030528495"></circle><circle r="11.13780271948565" cx="956.7634722819186" cy="465.18509649998896"></circle><circle r="7.127390261451733" cx="958.6562912820552" cy="511.76039187056017"></circle><circle r="8.096671012194252" cx="726.9445018536348" cy="471.6927175534102"></circle><circle r="4.718900964972988" cx="1343.5660455634238" cy="542.8840389925546"></circle><circle r="0.011976311969415367" cx="612.120629550173" cy="893.3536946454665"></circle><circle r="0.19108379955270705" cx="746.9153683393813" cy="684.7506295377393"></circle><circle r="1.6875030136958329" cx="1635.8631079962001" cy="596.839620265194"></circle><circle r="5.548903776189162" cx="737.3018196210073" cy="507.0907848360037"></circle><circle r="5.86114475695605" cx="334.8983802730425" cy="479.46521319828594"></circle><circle r="0.3807638566242342" cx="868.8898098810648" cy="289.91210775970643"></circle><circle r="4.090689303612397" cx="1042.1896665224983" cy="498.80178910681536"></circle><circle r="6.856204825079076" cx="1039.3168124154622" cy="525.1066311155082"></circle><circle r="0.18360640631426411" cx="505.1729777252969" cy="271.044072065868"></circle><circle r="5.939791546637185" cx="908.8558477788216" cy="291.1146916215423"></circle><circle r="1.008381287332549" cx="835.2195725306302" cy="547.6738365733053"></circle><circle r="1.5168949824330205" cx="507.2503149555692" cy="528.3500842045012"></circle><circle r="5.110694271890502" cx="902.0514746768281" cy="255.7391378518164"></circle><circle r="3.0966676282575776" cx="877.1589454607414" cy="277.33110871037417"></circle><circle r="6.5813987890551395" cx="887.7261811425802" cy="124.5245317641278"></circle><circle r="2.318082136887866" cx="964.8290207613574" cy="694.3451847391261"></circle><circle r="0.42302553662645337" cx="467.42145008828237" cy="452.3909978528503"></circle><circle r="0.6467060606090768" cx="1072.5975229389066" cy="584.0544111752579"></circle><circle r="9.822154273090845" cx="1003.3330645783276" cy="353.49699557081703"></circle><circle r="0.33119068294740084" cx="423.6722466514875" cy="433.1098743843722"></circle><circle r="7.027421200017318" cx="897.6315425278882" cy="468.74039353362525"></circle><circle r="5.364833918393604" cx="810.5048183165907" cy="509.43807419766574"></circle><circle r="17.751007442021596" cx="1326.2924166316054" cy="472.50379292646403"></circle><circle r="5.927627184790518" cx="1169.990330417112" cy="311.81263652114393"></circle><circle r="4.83269886142872" cx="1110.887408740836" cy="327.1303338236664"></circle><circle r="2.326008219685272" cx="1458.9546922043246" cy="596.38491419412"></circle><circle r="0.7602773131365624" cx="-115.60938916577106" cy="657.2845022313559"></circle><circle r="2.502638496928644" cx="479.2515066909271" cy="494.87776683974823"></circle><circle r="7.080671067229338" cx="850.0279060449037" cy="359.7479003447078"></circle><circle r="19.16278827562437" cx="984.1353280042935" cy="327.50062881093487"></circle><circle r="0.2432203894080531" cx="1734.7303833531328" cy="590.7511372217026"></circle><circle r="10.480549684382341" cx="1433.2920981131592" cy="421.9059946664408"></circle><circle r="14.009133958613853" cx="982.2835122395936" cy="582.9222158338137"></circle><circle r="12.440300116126394" cx="970.3269729595127" cy="541.6336632059636"></circle><circle r="14.781634175585962" cx="964.8830955497916" cy="254.37317891720227"></circle><circle r="4.087404914746512" cx="506.69486195204155" cy="731.9598894008803"></circle><circle r="38.74437186171461" cx="277.27928001500356" cy="325.72598830514715"></circle><circle r="0.1829411871541719" cx="406.49078566301125" cy="443.4803375615775"></circle><circle r="11.488524900735367" cx="1130.6015766090604" cy="308.9634761245128"></circle><circle r="0.06307018954029174" cx="872.5440115002602" cy="310.72048253849374"></circle><circle r="0.7070894103814211" cx="479.4320324909751" cy="480.50523771246316"></circle><circle r="11.322702649563618" cx="453.54076220400304" cy="512.5826484423314"></circle><circle r="0.34218875381330915" cx="462.44325836737534" cy="451.01323765675653"></circle><circle r="0.7246246088906025" cx="460.5409827675273" cy="454.6077221078691"></circle><circle r="20.391117437599146" cx="1365.84591366382" cy="461.01619264222694"></circle><circle r="1.0221322122873642" cx="1678.079566589764" cy="635.9832195738373"></circle><circle r="0.2703659611104782" cx="-127.0787352635923" cy="622.6318676823536"></circle><circle r="0.19373018865179306" cx="972.8828092169487" cy="357.5399174918371"></circle><circle r="1.0255854227615695" cx="-101.43419338429874" cy="622.7207750119074"></circle><circle r="10.672317093007454" cx="1049.1838101415497" cy="465.62868852594676"></circle><circle r="15.314153557887993" cx="929.0601040971892" cy="708.2967742516227"></circle><circle r="7.531040427686159" cx="945.4254357170845" cy="621.1343194203879"></circle><circle r="7.767571645087067" cx="956.3041023664784" cy="651.3729200482521"></circle></g></svg>